<?xml version="1.0" encoding="UTF-8"?>
<svg version="1.1" xmlns="http://www.w3.org/2000/svg" width="256" height="256">
<path d="M0 0 C22.67537061 2.8773671 49.95033933 11.98220937 64.875 30.125 C75.09267786 46.28750862 74.94223109 67.75690085 73 86 C61.7836762 82.89814054 51.67778779 74.05971534 45.84814453 64.01538086 C44.61924854 61.75362587 43.42791895 59.47619269 42.25 57.1875 C41.83878906 56.39923828 41.42757812 55.61097656 41.00390625 54.79882812 C39.99774822 52.86840864 38.99820031 50.93454633 38 49 C41.80475875 66.32334291 46.6455593 76.11887198 62.0625 86 C63.70325514 87.00831043 65.34726505 88.01144826 67 89 C64.47610459 91.52389541 62.83809585 91.28407993 59.38818359 91.32739258 C58.26790771 91.32002075 58.26790771 91.32002075 57.125 91.3125 C56.3613916 91.31338623 55.5977832 91.31427246 54.81103516 91.31518555 C50.07787937 91.24615001 45.94485867 90.65794062 41.375 89.3125 C36.0822941 87.76551154 34.02432104 88.62005846 29 91 C21.26004799 92.08984983 15.98029872 91.66808036 9.59179688 87.11499023 C4.62712201 83.06365467 0.13354207 78.53689044 -4.36010742 73.97607422 C-6.08144488 72.23079159 -7.81610206 70.49958265 -9.55273438 68.76953125 C-10.65184133 67.66485755 -11.75017829 66.55941709 -12.84765625 65.453125 C-13.36626724 64.93542542 -13.88487823 64.41772583 -14.41920471 63.88433838 C-18 60.23114778 -18 60.23114778 -18 58 C-15.79290017 57.34996375 -13.58426108 56.70515255 -11.375 56.0625 C-9.53035156 55.52302734 -9.53035156 55.52302734 -7.6484375 54.97265625 C-2.22298245 53.52625549 2.59492154 52.95434893 8.20556641 52.97680664 C9.28963776 52.98015518 10.37370911 52.98350372 11.4906311 52.98695374 C12.31872284 52.991259 13.14681458 52.99556427 14 53 C13.82460693 52.36550934 13.64921387 51.73101868 13.46850586 51.07730103 C11.64879207 44.49248071 9.83262885 37.90668867 8.01855469 31.3203125 C7.34043546 28.86009856 6.6614014 26.40013659 5.98144531 23.94042969 C5.00607369 20.41146122 4.03396099 16.8816092 3.0625 13.3515625 C2.75626709 12.24632233 2.45003418 11.14108215 2.13452148 10.00234985 C1.85423096 8.98144257 1.57394043 7.96053528 1.28515625 6.90869141 C1.03644775 6.00712311 0.78773926 5.10555481 0.53149414 4.17666626 C0 2 0 2 0 0 Z M36 44 C37 47 37 47 37 47 Z M18 75 C20.65654657 78.73884332 22.58110387 80.64978174 27 82 C24.34345343 78.26115668 22.41889613 76.35021826 18 75 Z " fill="#00BFBF" transform="translate(54,81)"/>
<path d="M0 0 C-1.29276785 6.88580395 -2.88130708 13.63790571 -4.71484375 20.3984375 C-4.97125137 21.35464996 -5.227659 22.31086243 -5.49183655 23.29605103 C-6.3040758 26.32317819 -7.12055634 29.34913939 -7.9375 32.375 C-8.74838502 35.38748014 -9.55834494 38.40020567 -10.36740112 41.41317749 C-10.88641512 43.34574341 -11.40635804 45.27806011 -11.92727661 47.21011353 C-13.25275526 52.14183469 -14.52051425 57.07943616 -15.70703125 62.046875 C-17.92623417 71.03557928 -22.07868004 78.90660689 -30 84 C-38.71822938 89.10822605 -46.2552354 91.1460056 -56.3125 91.25 C-57.37235107 91.2641394 -57.37235107 91.2641394 -58.45361328 91.27856445 C-62.17938834 91.25487042 -63.82311123 91.11792585 -67 89 C-66.02417969 88.38511719 -65.04835937 87.77023438 -64.04296875 87.13671875 C-62.75768345 86.32051568 -61.47253432 85.50409816 -60.1875 84.6875 C-59.54490234 84.28337891 -58.90230469 83.87925781 -58.24023438 83.46289062 C-57.61826172 83.06650391 -56.99628906 82.67011719 -56.35546875 82.26171875 C-55.49924927 81.71970825 -55.49924927 81.71970825 -54.62573242 81.16674805 C-52.9227227 80.01822102 -52.9227227 80.01822102 -51.4152832 78.35864258 C-50 77 -50 77 -48 77 C-47.72027344 76.43152344 -47.44054687 75.86304687 -47.15234375 75.27734375 C-46.40282688 73.79609516 -45.62533212 72.32856548 -44.81640625 70.87890625 C-41.17764223 64.15682817 -39.44216491 57.48049767 -38 50 C-38.49628906 50.97839844 -38.99257812 51.95679688 -39.50390625 52.96484375 C-46.22023235 66.01584864 -54.31874291 79.7566939 -69 85 C-71.1640625 84.55859375 -71.1640625 84.55859375 -73 84 C-73.62716189 54.27574241 -73.62716189 54.27574241 -70 43 C-69.74476563 42.10925781 -69.48953125 41.21851563 -69.2265625 40.30078125 C-65.04435521 27.7733438 -53.71857517 18.73436512 -42.26953125 12.97167969 C-29.86897487 6.99162996 -13.99449015 0 0 0 Z " fill="#00BFC0" transform="translate(211,50)"/>
<path d="M0 0 C0.33 0 0.66 0 1 0 C1.06731323 1.76537109 1.06731323 1.76537109 1.13598633 3.56640625 C2.71056664 56.32751469 2.71056664 56.32751469 19 106 C-4.1 106 -27.2 106 -51 106 C-49.02 103.36 -47.04 100.72 -45 98 C-32.84360835 78.42431593 -30.78790222 58.53115462 -33 36 C-31.53892822 36.18755859 -31.53892822 36.18755859 -30.04833984 36.37890625 C-23.86978234 36.66735616 -23.86978234 36.66735616 -18 35 C-13.31583702 30.52025479 -11.0965047 23.85699981 -8.625 18 C-7.88834244 16.37248566 -7.14620013 14.74744209 -6.3984375 13.125 C-5.04272251 10.17017456 -3.72240584 7.20437636 -2.43603516 4.21875 C-1 1 -1 1 0 0 Z " fill="#B25900" transform="translate(155,149)"/>
<path d="M0 0 C15.86264526 3.66061044 35.08200643 13.13475742 44.31640625 26.97265625 C51.3450095 40.01836634 49.97423946 55.97858542 47 70 C39.89562832 68.75278808 34.43985687 62.01730843 30.38671875 56.3984375 C27.58967413 51.56073215 25.81494433 46.26815699 24 41 C25.46497781 52.56561432 27.90680045 60.36820752 37 68 C38.65411668 69.02062519 40.31558871 70.03018744 42 71 C42 71.66 42 72.32 42 73 C31.95273923 73.80022431 22.89943923 71.81105345 15 65.3125 C7.84679934 58.98571078 6.28629412 49.79933629 5.078125 40.76171875 C4.92841248 39.71852982 4.77869995 38.67534088 4.62445068 37.60054016 C4.15388883 34.29780774 3.70202936 30.99281393 3.25 27.6875 C2.93214344 25.44970559 2.61314373 23.21207325 2.29296875 20.97460938 C1.71513772 16.88981297 1.13733379 12.80505379 0.57910156 8.7175293 C0.46681213 7.90084274 0.35452271 7.08415619 0.23883057 6.24272156 C0 4 0 4 0 0 Z " fill="#00BFC0" transform="translate(81,18)"/>
<path d="M0 0 C-0.87512884 6.81416274 -2.51427158 13.33577139 -4.27368164 19.9609375 C-4.8104622 21.99228832 -5.33215255 24.02714571 -5.85351562 26.0625 C-9.84716099 41.35811832 -9.84716099 41.35811832 -15.12109375 45.77734375 C-22.13774871 49.29158746 -28.2335663 49.54778921 -36 49 C-33.58736221 46.52903471 -31.14297805 44.26759336 -28.4375 42.125 C-25.27087341 39.4476376 -23.51420602 36.91912146 -22 33 C-22 32.34 -22 31.68 -22 31 C-22.27972656 31.50789063 -22.55945313 32.01578125 -22.84765625 32.5390625 C-25.77474037 37.56498828 -28.96912025 41.91965202 -34 45 C-36.71875 45.66015625 -36.71875 45.66015625 -39 46 C-39.88650189 22.01519891 -39.88650189 22.01519891 -31 12 C-22.97254493 5.8789034 -10.31755616 0 0 0 Z M-21 27 C-20 29 -20 29 -20 29 Z " fill="#48CEBB" transform="translate(179,11)"/>
<path d="M0 0 C1.71123047 -0.00386719 1.71123047 -0.00386719 3.45703125 -0.0078125 C6.1875 0.125 6.1875 0.125 7.1875 1.125 C7.48797671 2.43103242 7.75232664 3.74543324 8 5.0625 C9.12327899 10.3579581 11.08141147 15.15594738 13.1875 20.125 C13.85737364 21.7903803 14.52491529 23.45670635 15.1875 25.125 C13.8675 24.795 12.5475 24.465 11.1875 24.125 C14.76294556 27.2294685 18.10394963 29.13590315 22.5 30.875 C23.56863281 31.30296875 24.63726562 31.7309375 25.73828125 32.171875 C26.95064453 32.64367187 26.95064453 32.64367187 28.1875 33.125 C25.07184506 36.73260045 21.84530247 37.9016691 17.171875 38.53125 C16.10453125 38.5621875 15.0371875 38.593125 13.9375 38.625 C12.35195312 38.70234375 12.35195312 38.70234375 10.734375 38.78125 C0.81872931 36.94663714 -6.37135699 28.00398316 -13.17260742 21.10107422 C-14.89394488 19.35579159 -16.62860206 17.62458265 -18.36523438 15.89453125 C-19.46434133 14.78985755 -20.56267829 13.68441709 -21.66015625 12.578125 C-22.17876724 12.06042542 -22.69737823 11.54272583 -23.23170471 11.00933838 C-26.8125 7.35614778 -26.8125 7.35614778 -26.8125 5.125 C-24.60540017 4.47496375 -22.39676108 3.83015255 -20.1875 3.1875 C-18.95773438 2.82785156 -17.72796875 2.46820313 -16.4609375 2.09765625 C-10.88186424 0.6103016 -5.77337664 -0.01319629 0 0 Z " fill="#47CDBB" transform="translate(62.8125,133.875)"/>
<path d="M0 0 C10.90898677 3.75827898 20.44892446 8.07138032 27 18 C28.39267186 21.71935119 28.13273067 25.57281783 28.125 29.5 C28.12886719 31.46453125 28.12886719 31.46453125 28.1328125 33.46875 C28.02924755 36.22235924 27.83458014 38.40352847 27 41 C26.01 41 25.02 41 24 41 C24 41.66 24 42.32 24 43 C17.60948772 42.71018085 13.22480445 41.7905444 8 38 C3.26271449 32.55257112 2.73954973 26.55018109 1.75 19.5625 C1.57726563 18.45583984 1.40453125 17.34917969 1.2265625 16.20898438 C0.40509798 10.75537272 -0.22218144 5.5148607 0 0 Z M14 27 C14.29123499 32.97031739 17.02814384 35.894534 21 40 C21.66 39.67 22.32 39.34 23 39 C22.236875 38.13375 21.47375 37.2675 20.6875 36.375 C18.24779927 33.46399345 16.57001723 30.47056439 15 27 C14.67 27 14.34 27 14 27 Z " fill="#48CEBB" transform="translate(47,23)"/>
<path d="M0 0 C0.99 0.66 1.98 1.32 3 2 C3 2.66 3 3.32 3 4 C1.3828125 5.35693359 1.3828125 5.35693359 -0.875 6.8984375 C-1.69613281 7.46046875 -2.51726562 8.0225 -3.36328125 8.6015625 C-4.23339844 9.18679687 -5.10351562 9.77203125 -6 10.375 C-6.83917969 10.9525 -7.67835938 11.53 -8.54296875 12.125 C-22.16459115 21.37503195 -22.16459115 21.37503195 -28.125 21 C-32.0734288 20.23052273 -34.8976895 18.58525875 -38 16 C-38.66 14.68 -39.32 13.36 -40 12 C-36.37 12 -32.74 12 -29 12 C-30.794375 11.87625 -32.58875 11.7525 -34.4375 11.625 C-37.49609375 11.4140625 -37.49609375 11.4140625 -40 11 C-40.33 10.34 -40.66 9.68 -41 9 C-28.58603825 -5.80126209 -18.14354351 -8.61491994 0 0 Z " fill="#00BFC0" transform="translate(220,145)"/>
<path d="M0 0 C1.21470725 2.84332475 2.39154538 5.70090996 3.5625 8.5625 C3.90474609 9.36236328 4.24699219 10.16222656 4.59960938 10.98632812 C6.6444678 16.04683634 7.5227297 19.5498679 6 25 C3.42339309 28.11905047 1.8455896 29.7181368 -2 31 C-6.18885279 29.60371574 -6.9898075 27.33407263 -8.9765625 23.53515625 C-10.89146692 18.79174797 -10.91451793 14.61821377 -9.23046875 9.796875 C-4.67673611 0 -4.67673611 0 0 0 Z M-1 20 C-1 22.31 -1 24.62 -1 27 C-0.67 27 -0.34 27 0 27 C0 24.69 0 22.38 0 20 C-0.33 20 -0.66 20 -1 20 Z " fill="#00BFC0" transform="translate(130,1)"/>
<path d="M0 0 C2.57061612 3.08473934 4.62644305 6.21840808 6 10 C5.58865336 14.50553118 5.58865336 14.50553118 3.4375 16.3125 C-0.05043915 17.29627771 -3.48301872 17.93655181 -7 17 C-10.63098415 13.7795252 -13.71486233 10.10449411 -16.8125 6.375 C-17.99779297 4.96347656 -17.99779297 4.96347656 -19.20703125 3.5234375 C-21 1 -21 1 -21 -2 C-13.81677181 -3.4016055 -6.33852034 -4.29383636 0 0 Z " fill="#00BFC0" transform="translate(46,101)"/>
<path d="M0 0 C1.42119141 -0.00386719 1.42119141 -0.00386719 2.87109375 -0.0078125 C5.26390459 0.11026525 7.27586153 0.44387365 9.5625 1.125 C8.04352268 5.93509483 5.3114352 9.13914428 2.0625 12.875 C1.56363281 13.46410156 1.06476563 14.05320312 0.55078125 14.66015625 C-3.15775905 18.98512953 -3.15775905 18.98512953 -5.4375 20.125 C-13.41274752 20.56806931 -13.41274752 20.56806931 -16.4375 18.125 C-17.66858929 15.50893526 -17.69777331 13.89510278 -16.7734375 11.16015625 C-14.74521821 6.73270196 -12.61686216 3.80407831 -8.4375 1.125 C-5.36792902 0.10180967 -3.21309677 -0.00871939 0 0 Z " fill="#00BFC0" transform="translate(197.4375,25.875)"/>
<path d="M0 0 C1.051875 -0.00257812 2.10375 -0.00515625 3.1875 -0.0078125 C6 0.125 6 0.125 9 1.125 C7.47157082 5.79812831 4.95326383 9.13230217 1.875 12.875 C1.20210937 13.75865234 1.20210937 13.75865234 0.515625 14.66015625 C-2.12925519 17.87390731 -3.98565426 19.47205362 -8.18359375 20.0546875 C-13.94621514 20.16085657 -13.94621514 20.16085657 -17 18.125 C-18.0625 16 -18.0625 16 -18 13.125 C-16.21065725 7.86161167 -13.74558132 4.16703931 -9 1.125 C-5.77717587 0.05072529 -3.38488847 -0.0082963 0 0 Z " fill="#48CEBB" transform="translate(222,104.875)"/>
</svg>
